# xmcd CD database file
#
# Track frame offsets:
#	150
#	16753
#	34307
#	49165
#	64125
#	82861
#	99282
#	116503
#	134116
#	148596
#	166861
#	182287
#	196743
#	212214
#	225537
#	240660
#	258326
#	274861
#	289836
#	305959
#
# Disc length: 4300 seconds
#
# Revision: 1
# Processed by: cddbd v1.5PL3 Copyright (c) Steve Scherf et al.
# Submitted via: Feurio! 1.67 - http://www.feurio.com
#
DISCID=1b10ca14
DTITLE=Various Artist - Die Große Schlager Starparade 2004 CD1
DYEAR=1900
DGENRE=
TTITLE0=Michelle - Dein Püppchen tanzt nicht mehr
TTITLE1=Bruner and Brunner - Schenk mir diese eine Nacht
TTITLE2=Bernhard Brink - Liebe auf Zeit
TTITLE3=G.G.Anderson - Herz auf Rot
TTITLE4=Kristina Bach - Auf dünnem Eis getanzt
TTITLE5=Roland Kaiser - In unserer Straße
TTITLE6=Klostertaler - Land der tausend Farben
TTITLE7=Claudia Jung - Seelenfeuer
TTITLE8=Karel Gott - Jeder Tag ein neues Leben
TTITLE9=Carin Posch - Die Neue an deiner Seite
TTITLE10=Leonard - Aug um Auge (macht die ganze Welt blind)
TTITLE11=Linda Feller - Ich lieb dich - ich hasse dich
TTITLE12=Fernando Express - Südlich der Sehnsucht
TTITLE13=Michael Morgan - Explosiv
TTITLE14=Nicole - Mach was du willst
TTITLE15=Nino de Angelo and Francine Jordi - Und wenn ich abends einschalf
TTITLE16=Rosanna Rocci - Das schaffst du nie
TTITLE17=Die Paldauer - Du bist alles
TTITLE18=Naabtal Duo - Lass uns nochmal darüber reden
TTITLE19=Michael Heck - Novemberwind
EXTD=
EXTT0=
EXTT1=
EXTT2=
EXTT3=
EXTT4=
EXTT5=
EXTT6=
EXTT7=
EXTT8=
EXTT9=
EXTT10=
EXTT11=
EXTT12=
EXTT13=
EXTT14=
EXTT15=
EXTT16=
EXTT17=
EXTT18=
EXTT19=
PLAYORDER=
